<svg aria-hidden="true" style="position: absolute; width: 0; height: 0; overflow: hidden;" version="1.1" xmlns="http://www.w3.org/2000/svg" xmlns:xlink="http://www.w3.org/1999/xlink">
<defs>
<symbol id="icon-group" viewBox="0 0 160 32">
<path d="M12.605 27.77h-1.628v-3.043h-8.906v3.051h-1.636l-0.009-4.389h1.014c0.534-0.602 0.957-1.409 1.27-2.421 0.318-1.017 0.517-2.131 0.597-3.341l0.273-5.31h7.423v11.071h1.619l-0.017 4.381zM3.307 23.389h6.051v-9.724h-4.202l-0.179 3.648c-0.074 1.426-0.264 2.642-0.571 3.648-0.301 1.006-0.668 1.815-1.099 2.429zM20.284 15.506h1.577v9.222h-1.577v-6.724l-4.253 6.724h-1.577v-9.222h1.577v6.733l4.253-6.733zM29.463 18.028c0-0.432-0.165-0.773-0.494-1.023-0.329-0.256-0.781-0.384-1.355-0.384-0.557 0-1.023 0.145-1.398 0.435-0.369 0.29-0.554 0.631-0.554 1.023h-1.568c0-0.801 0.335-1.457 1.006-1.969s1.509-0.767 2.514-0.767c1.080 0 1.92 0.233 2.523 0.699 0.602 0.46 0.903 1.119 0.903 1.977 0 0.415-0.125 0.795-0.375 1.142s-0.605 0.622-1.065 0.827c1.074 0.364 1.611 1.080 1.611 2.148 0 0.847-0.327 1.517-0.98 2.011s-1.526 0.741-2.616 0.741c-1.063 0-1.94-0.258-2.634-0.776-0.687-0.523-1.031-1.227-1.031-2.114h1.568c0 0.449 0.199 0.835 0.596 1.159 0.404 0.318 0.903 0.477 1.5 0.477 0.602 0 1.088-0.139 1.457-0.418s0.554-0.639 0.554-1.082c0-0.517-0.156-0.886-0.469-1.108-0.307-0.227-0.787-0.341-1.44-0.341h-1.577v-1.33h1.713c1.074-0.028 1.611-0.472 1.611-1.33zM38.949 24.727c-0.091-0.182-0.165-0.506-0.222-0.972-0.733 0.761-1.608 1.142-2.625 1.142-0.909 0-1.656-0.256-2.241-0.767-0.58-0.517-0.869-1.17-0.869-1.96 0-0.96 0.364-1.705 1.091-2.233 0.733-0.534 1.761-0.801 3.085-0.801h1.534v-0.724c0-0.551-0.165-0.989-0.494-1.312-0.33-0.33-0.815-0.494-1.457-0.494-0.562 0-1.034 0.142-1.415 0.426s-0.571 0.628-0.571 1.031h-1.585c0-0.46 0.162-0.903 0.486-1.33 0.33-0.432 0.773-0.773 1.33-1.023 0.562-0.25 1.179-0.375 1.849-0.375 1.062 0 1.895 0.267 2.497 0.801 0.602 0.528 0.915 1.258 0.937 2.19v4.244c0 0.847 0.108 1.52 0.324 2.020v0.136h-1.654zM36.332 23.526c0.494 0 0.963-0.128 1.406-0.383s0.764-0.588 0.963-0.997v-1.892h-1.236c-1.932 0-2.898 0.565-2.898 1.696 0 0.494 0.165 0.881 0.494 1.159s0.753 0.418 1.27 0.418zM48.716 15.506h1.577v9.222h-1.577v-6.724l-4.253 6.724h-1.577v-9.222h1.577v6.733l4.253-6.733zM49.142 12.148c0 0.688-0.236 1.241-0.708 1.662-0.466 0.415-1.080 0.622-1.841 0.622s-1.378-0.21-1.849-0.631c-0.472-0.42-0.707-0.972-0.707-1.653h1.287c0 0.398 0.108 0.71 0.324 0.938 0.216 0.222 0.531 0.332 0.946 0.332 0.398 0 0.707-0.111 0.929-0.332 0.227-0.222 0.341-0.534 0.341-0.938h1.279zM60.358 24.727h-1.577v-3.937h-4.236v3.937h-1.585v-9.222h1.585v3.997h4.236v-3.997h1.577v9.222z"></path>
<path d="M150.787 31.907h1.446v-4.829l4.429 4.327c0.119 0.093 0.244 0.185 0.368 0.272 0.103 0.070 0.205 0.132 0.311 0.189 0.092 0.042 0.191 0.086 0.292 0.103 0.105 0.022 0.211 0.032 0.316 0.032 0.215 0 0.432-0.036 0.634-0.132 0.179-0.087 0.335-0.209 0.465-0.362 0.134-0.159 0.227-0.343 0.294-0.537 0.067-0.215 0.1-0.441 0.1-0.66v-4.535h-1.449v4.816l-4.438-4.367c-0.345-0.337-0.767-0.593-1.264-0.593-0.193 0-0.381 0.042-0.56 0.119-0.173 0.079-0.337 0.185-0.486 0.314-0.135 0.129-0.25 0.285-0.333 0.455-0.086 0.173-0.128 0.356-0.128 0.547v4.841h0.001zM129.091 21.6h5.075v-9.103l16.743 8.378c1.807 0.897 4.543 1.111 6.301 0 1.719-1.082 2.233-2.957 2.233-4.886v-15.807h-59.284c-1.001 0-1.984 0.153-2.935 0.449-0.929 0.292-1.795 0.721-2.572 1.309-0.756 0.569-1.367 1.267-1.836 2.079-0.492 0.851-0.703 1.788-0.703 2.761 0 0.934 0.192 1.823 0.604 2.657 0.403 0.807 0.935 1.514 1.619 2.105 0.688 0.605 1.472 1.059 2.33 1.375 0.88 0.332 1.798 0.495 2.742 0.495h20.954v3.168h-31.776v-16.58h-5.677v21.603l35.455-0.003c0.924 0 1.823-0.167 2.692-0.492 0.839-0.319 1.62-0.772 2.303-1.363 0.668-0.579 1.201-1.271 1.6-2.064 0.417-0.822 0.602-1.708 0.602-2.623 0-0.918-0.185-1.789-0.563-2.623-0.369-0.813-0.876-1.537-1.527-2.148-0.668-0.634-1.45-1.108-2.303-1.449-0.915-0.369-1.881-0.534-2.87-0.534h-20.653v-3.233h56.695v11.673l-16.922-8.428c-3.923-1.952-8.327-1.249-8.327 3.916v9.367zM90.191 30.506h-5.785v-3.321h5.785v3.321zM82.938 31.907h6.655c0.272 0 0.535-0.045 0.794-0.141 0.244-0.092 0.471-0.223 0.668-0.396 0.193-0.17 0.346-0.372 0.463-0.605 0.116-0.239 0.17-0.497 0.17-0.762v-2.346c0-0.271-0.051-0.529-0.167-0.777-0.113-0.227-0.262-0.432-0.455-0.596-0.193-0.176-0.417-0.304-0.656-0.39-0.259-0.099-0.521-0.145-0.793-0.145h-6.679v6.159h0.001zM106.465 31.935v-1.521h-7.251v-0.842h7.251v-1.476h-7.251v-0.896h7.251v-1.469h-6.541c-0.288 0-0.58 0.042-0.854 0.134-0.25 0.089-0.48 0.212-0.682 0.384-0.198 0.17-0.352 0.378-0.46 0.611-0.119 0.259-0.164 0.54-0.164 0.823v2.291c0 0.275 0.051 0.547 0.17 0.791 0.122 0.234 0.278 0.444 0.477 0.618 0.199 0.177 0.432 0.308 0.688 0.406 0.259 0.092 0.528 0.147 0.807 0.147h6.559zM121.651 27.193v-1.392h-6.819c-0.279 0-0.563 0.042-0.835 0.131-0.262 0.080-0.512 0.202-0.733 0.369-0.212 0.161-0.388 0.359-0.522 0.593-0.138 0.241-0.199 0.506-0.199 0.787 0 0.262 0.054 0.519 0.173 0.756 0.111 0.227 0.266 0.435 0.46 0.596 0.196 0.176 0.417 0.304 0.662 0.394 0.253 0.093 0.516 0.143 0.784 0.143h5.98v0.909h-7.66v1.425h7.085c0.265 0 0.519-0.045 0.764-0.14 0.244-0.092 0.465-0.22 0.657-0.39 0.195-0.164 0.342-0.364 0.457-0.586 0.121-0.237 0.17-0.486 0.17-0.749 0-0.262-0.049-0.509-0.16-0.748-0.099-0.23-0.25-0.438-0.432-0.615-0.193-0.177-0.417-0.311-0.659-0.407-0.259-0.108-0.534-0.153-0.816-0.153h-5.898v-0.927l7.542 0.001zM129.772 25.747h-1.617v6.211h1.617v-6.211zM140.381 28.068v1.478h2.841v0.868h-5.935v-3.229h7.424v-1.437h-6.636c-0.567 0-1.187 0.096-1.654 0.448-0.403 0.308-0.579 0.729-0.579 1.229v2.524c0 0.288 0.054 0.573 0.185 0.831 0.128 0.236 0.294 0.435 0.505 0.601 0.217 0.167 0.461 0.291 0.72 0.371 0.273 0.089 0.56 0.131 0.849 0.131h4.253c0.292 0 0.579-0.035 0.867-0.113 0.268-0.071 0.516-0.185 0.748-0.346 0.215-0.156 0.394-0.352 0.525-0.588 0.14-0.253 0.196-0.538 0.196-0.831v-1.933l-4.31-0.003z"></path>
</symbol>
<symbol id="icon-logo" viewBox="0 0 77 32">
<path d="M67.878 31.907h1.446v-4.829l4.429 4.327c0.119 0.093 0.244 0.185 0.368 0.272 0.103 0.070 0.205 0.132 0.311 0.189 0.092 0.042 0.191 0.086 0.292 0.103 0.105 0.022 0.211 0.032 0.316 0.032 0.215 0 0.432-0.036 0.634-0.132 0.179-0.087 0.335-0.209 0.465-0.362 0.134-0.159 0.227-0.343 0.294-0.537 0.067-0.215 0.1-0.441 0.1-0.66v-4.535h-1.449v4.816l-4.438-4.367c-0.345-0.337-0.767-0.593-1.264-0.593-0.193 0-0.381 0.042-0.56 0.119-0.173 0.079-0.337 0.185-0.486 0.314-0.135 0.129-0.25 0.285-0.333 0.455-0.086 0.173-0.128 0.356-0.128 0.547v4.841h0.001zM46.182 21.6h5.075v-9.103l16.743 8.378c1.807 0.897 4.543 1.111 6.301 0 1.719-1.082 2.233-2.957 2.233-4.886v-15.807h-59.284c-1.001 0-1.984 0.153-2.935 0.449-0.929 0.292-1.795 0.721-2.572 1.309-0.756 0.569-1.367 1.267-1.836 2.079-0.492 0.851-0.703 1.788-0.703 2.761 0 0.934 0.192 1.823 0.604 2.657 0.403 0.807 0.935 1.514 1.619 2.105 0.688 0.605 1.472 1.059 2.33 1.375 0.88 0.332 1.798 0.495 2.742 0.495h20.954v3.168h-31.776v-16.58h-5.677v21.603l35.455-0.003c0.924 0 1.823-0.167 2.692-0.492 0.839-0.319 1.62-0.772 2.303-1.363 0.668-0.579 1.201-1.271 1.6-2.064 0.417-0.822 0.602-1.708 0.602-2.623 0-0.918-0.185-1.789-0.563-2.623-0.369-0.813-0.876-1.537-1.527-2.148-0.668-0.634-1.45-1.108-2.303-1.449-0.915-0.369-1.881-0.534-2.87-0.534h-20.653v-3.233h56.695v11.673l-16.922-8.428c-3.923-1.952-8.327-1.249-8.327 3.916v9.367zM7.281 30.506h-5.785v-3.321h5.785v3.321zM0.029 31.907h6.655c0.272 0 0.535-0.045 0.794-0.141 0.244-0.092 0.471-0.223 0.668-0.396 0.193-0.17 0.346-0.372 0.463-0.605 0.116-0.239 0.17-0.497 0.17-0.762v-2.346c0-0.271-0.051-0.529-0.167-0.777-0.113-0.227-0.262-0.432-0.455-0.596-0.193-0.176-0.417-0.304-0.656-0.39-0.259-0.099-0.521-0.145-0.793-0.145h-6.679v6.159h0.001zM23.556 31.935v-1.521h-7.251v-0.842h7.251v-1.476h-7.251v-0.896h7.251v-1.469h-6.541c-0.288 0-0.58 0.042-0.854 0.134-0.25 0.089-0.48 0.212-0.682 0.384-0.198 0.17-0.352 0.378-0.46 0.611-0.119 0.259-0.164 0.54-0.164 0.823v2.291c0 0.275 0.051 0.547 0.17 0.791 0.122 0.234 0.278 0.444 0.477 0.618 0.199 0.177 0.432 0.308 0.688 0.406 0.259 0.092 0.528 0.147 0.807 0.147h6.559zM38.742 27.193v-1.392h-6.819c-0.279 0-0.563 0.042-0.835 0.131-0.262 0.080-0.512 0.202-0.733 0.369-0.212 0.161-0.388 0.359-0.522 0.593-0.138 0.241-0.199 0.506-0.199 0.787 0 0.262 0.054 0.519 0.173 0.756 0.111 0.227 0.266 0.435 0.46 0.596 0.196 0.176 0.417 0.304 0.662 0.394 0.253 0.093 0.516 0.143 0.784 0.143h5.98v0.909h-7.66v1.425h7.085c0.265 0 0.519-0.045 0.764-0.14 0.244-0.092 0.465-0.22 0.657-0.39 0.195-0.164 0.342-0.364 0.457-0.586 0.121-0.237 0.17-0.486 0.17-0.749 0-0.262-0.049-0.509-0.16-0.748-0.099-0.23-0.25-0.438-0.432-0.615-0.193-0.177-0.417-0.311-0.659-0.407-0.259-0.108-0.534-0.153-0.816-0.153h-5.898v-0.927l7.542 0.001zM46.863 25.747h-1.617v6.211h1.617v-6.211zM57.472 28.068v1.478h2.841v0.868h-5.935v-3.229h7.424v-1.437h-6.636c-0.567 0-1.187 0.096-1.654 0.448-0.403 0.308-0.579 0.729-0.579 1.229v2.524c0 0.288 0.054 0.573 0.185 0.831 0.128 0.236 0.294 0.435 0.505 0.601 0.217 0.167 0.461 0.291 0.72 0.371 0.273 0.089 0.56 0.131 0.849 0.131h4.253c0.292 0 0.579-0.035 0.867-0.113 0.268-0.071 0.516-0.185 0.748-0.346 0.215-0.156 0.394-0.352 0.525-0.588 0.14-0.253 0.196-0.538 0.196-0.831v-1.933l-4.31-0.003z"></path>
</symbol>
</defs>
</svg>
